# xmcd CD database file
#
# Track frame offsets:
#	150
#	16543
#	33028
#	48753
#	62998
#	84358
#	100180
#	135190
#	156383
#
# Disc length: 2313 seconds
#
# Revision: 1
# Processed by: cddbd v1.4PL0 Copyright (c) Steve Scherf et al.
# Submitted via: CDex 1.50Beta7
#
DISCID=5b090709
DTITLE=Poppy Trail - Nectar
DYEAR=1993
DGENRE=Country
TTITLE0=My Lobotomy
TTITLE1=Twigs
TTITLE2=Revolution at the Mall
TTITLE3=Myself, Myself
TTITLE4=The Pearl (The Death of Country Music)
TTITLE5=Sky Blue P{ink
TTITLE6=From a Lawless Place
TTITLE7=Tending the Still
TTITLE8=Romona
EXTD=YEAR: 1993
EXTT0=
EXTT1=
EXTT2=
EXTT3=
EXTT4=
EXTT5=
EXTT6=
EXTT7=
EXTT8=
PLAYORDER=
